Coordinates
version=1
nRows=22
nColumns=24
inDegrees=yes

Units are S.I. units (second, meters, Newtons, ...)
Angles are in degrees.

endheader
time	pelvis_tilt	pelvis_list	pelvis_rotation	pelvis_tx	pelvis_ty	pelvis_tz	hip_flexion_r	hip_adduction_r	hip_rotation_r	knee_angle_r	ankle_angle_r	subtalar_angle_r	mtp_angle_r	hip_flexion_l	hip_adduction_l	hip_rotation_l	knee_angle_l	ankle_angle_l	subtalar_angle_l	mtp_angle_l	lumbar_extension	lumbar_bending	lumbar_rotation
      3.78500000	     -6.04737566	      9.83529166	      1.35345901	     -0.67166928	     -0.02268367	     -0.14909347	     30.88965211	    -10.84290102	      0.71956312	    -71.17918386	    -15.69120573	      6.14834792	     27.33846700	     11.73286351	     19.95553304	     -1.91215251	    -14.08235249	      6.02549910	     -0.01223410	     -9.69762462	      6.98517166	    -12.09408748	     -0.47378053
      3.79000000	     -5.93508007	      9.60235974	      1.47913581	     -0.66610130	     -0.02205351	     -0.14927225	     31.54371194	    -10.58304096	      0.63647572	    -70.61283162	    -14.84921574	      5.92020423	     27.13190454	     10.93262680	     19.73955881	     -1.61698934	    -13.78319310	      6.29585767	      0.21502477	     -9.63465052	      6.71513914	    -11.87486117	     -0.71552707
      3.79500000	     -5.82379407	      9.37248990	      1.62002424	     -0.66053413	     -0.02149786	     -0.14950176	     32.17081046	    -10.35758838	      0.50348417	    -69.97629513	    -14.02541553	      5.71210955	     26.83304627	     10.14149569	     19.52421027	     -1.36562030	    -13.49282987	      6.60565956	      0.48334695	     -9.49697253	      6.44966733	    -11.65315765	     -0.96206692
      3.80000000	     -5.75068647	      9.11821042	      1.77078149	     -0.65500904	     -0.02100370	     -0.14971115	     32.80459141	    -10.10768190	      0.35682614	    -69.23878766	    -13.26859904	      5.53197741	     26.57578701	      9.41612044	     19.27440476	     -1.11908931	    -13.23434889	      6.90998586	      0.76093089	     -9.31894836	      6.21873338	    -11.41399039	     -1.22337500
      3.80500000	     -5.67078529	      8.86365955	      1.93248668	     -0.64950460	     -0.02055527	     -0.14992745	     33.39717417	     -9.87361356	      0.17967934	    -68.42033910	    -12.53765377	      5.37229904	     26.25339555	      8.69579167	     19.01974412	     -0.88132846	    -12.99030469	      7.21669699	      1.04418634	     -9.09735915	      5.97629251	    -11.17530025	     -1.49512519
      3.81000000	     -5.63863832	      8.58251054	      2.09660103	     -0.64402964	     -0.02018135	     -0.15015578	     34.00727923	     -9.61048749	      0.00841610	    -67.50022556	    -11.89154200	      5.25301176	     26.01206850	      8.05056723	     18.73874987	     -0.62975163	    -12.77521464	      7.51271876	      1.25613349	     -8.91364534	      5.78224503	    -10.90866770	     -1.79117164
      3.81500000	     -5.58213514	      8.31494715	      2.28281976	     -0.63854189	     -0.01982929	     -0.15038451	     34.54627375	     -9.39159049	     -0.21903910	    -66.49915999	    -11.24544523	      5.14432356	     25.69425043	      7.38111675	     18.46990222	     -0.36121786	    -12.56698494	      7.79718920	      1.45756664	     -8.72605133	      5.56380465	    -10.66014876	     -2.09783174
      3.82000000	     -5.50197248	      8.06772440	      2.48248489	     -0.63305568	     -0.01951272	     -0.15062689	     35.02594745	     -9.21809430	     -0.48813544	    -65.43901122	    -10.56592025	      5.06375353	     25.20188656	      6.68216255	     18.22267990	     -0.04647617	    -12.35041724	      8.05000431	      1.61460959	     -8.52960862	      5.32022732	    -10.43863899	     -2.39063067
      3.82500000	     -5.50116688	      7.78714473	      2.65471546	     -0.62759135	     -0.01931144	     -0.15084311	     35.56631225	     -8.97716178	     -0.69178646	    -64.27854101	    -10.00799538	      5.04569160	     24.86500905	      6.10450570	     17.94382790	      0.26002577	    -12.17506258	      8.31014053	      1.64690860	     -8.41461194	      5.16467414	    -10.17735924	     -2.70608096
      3.83000000	     -5.43967557	      7.53593267	      2.85782773	     -0.62207479	     -0.01910939	     -0.15112747	     35.99399100	     -8.82160893	     -0.99079417	    -63.06169153	     -9.39539783	      5.03806818	     24.36451966	      5.43038406	     17.70145410	      0.65927418	    -11.96087956	      8.53612834	      1.62657312	     -8.33645524	      4.94626110	     -9.93713280	     -3.03318213
      3.83500000	     -5.41238184	      7.28156907	      3.04968699	     -0.61656686	     -0.01896157	     -0.15133990	     36.42159336	     -8.63692720	     -1.24492999	    -61.75492392	     -8.82848066	      5.08799024	     23.86741992	      4.81862037	     17.45236396	      1.07353541	    -11.78309688	      8.74166221	      1.51154474	     -8.31777385	      4.77606611	     -9.71350299	     -3.34675379
      3.84000000	     -5.38852441	      7.03888959	      3.23615296	     -0.61106452	     -0.01887874	     -0.15156989	     36.82604806	     -8.47208810	     -1.50834429	    -60.38788725	     -8.27644960	      5.16528134	     23.36257945	      4.21148695	     17.21770845	      1.51295278	    -11.59955131	      8.93125630	      1.33904346	     -8.35698027	      4.60103675	     -9.48853204	     -3.66018068
      3.84500000	     -5.36354619	      6.80811122	      3.42358751	     -0.60557371	     -0.01883707	     -0.15179624	     37.19681940	     -8.32483045	     -1.77823772	    -58.95373822	     -7.74179855	      5.28365769	     22.83504741	      3.60685138	     16.99537523	      1.97733850	    -11.41907027	      9.10975977	      1.11218951	     -8.45318856	      4.42568332	     -9.27882664	     -3.97279374
      3.85000000	     -5.32788690	      6.61706443	      3.54359679	     -0.60001862	     -0.01885431	     -0.15193192	     37.54401343	     -8.16711526	     -1.97336861	    -57.50144996	     -7.12455996	      5.50878404	     22.00023662	      2.96156258	     16.81373124	      2.51982432	    -11.17975769	      9.21846142	      0.68827654	     -8.72482364	      4.25774611	     -9.10091146	     -4.17893309
      3.85500000	     -5.36866464	      6.40841998	      3.76128548	     -0.59457104	     -0.01895592	     -0.15215245	     37.91575733	     -8.06378720	     -2.25785416	    -55.91768715	     -6.71381753	      5.65588909	     21.73010816	      2.48259873	     16.60482238	      2.85640562	    -11.08724968	      9.45237313	      0.60676658	     -8.78009404	      4.14711128	     -8.92537609	     -4.54265174
      3.86000000	     -5.33113060	      6.21983109	      3.90594543	     -0.58904436	     -0.01900361	     -0.15228984	     38.17262440	     -7.92607986	     -2.47404411	    -54.28981407	     -6.27434735	      5.88928716	     21.21910859	      1.86836468	     16.40646352	      3.27248583	    -10.89998248	      9.61980597	      0.38272495	     -9.01922282	      3.96753362	     -8.75968766	     -4.83323613
      3.86500000	     -5.36102045	      6.04311660	      4.09814011	     -0.58362531	     -0.01919076	     -0.15247475	     38.47035440	     -7.84105305	     -2.74310246	    -52.59451631	     -5.85219061	      6.11563097	     20.92528921	      1.40278119	     16.22383274	      3.55900187	    -10.83944730	      9.85791627	      0.27675262	     -9.12556768	      3.83771773	     -8.61106103	     -5.13978841
      3.87000000	     -5.35319293	      5.88296024	      4.25133394	     -0.57817541	     -0.01935064	     -0.15259050	     38.69533621	     -7.74046554	     -2.97292695	    -50.84777258	     -5.45499129	      6.40749297	     20.57721117	      0.87284447	     16.04183523	      3.81853783	    -10.72588446	     10.06893844	      0.21001375	     -9.28245665	      3.67485450	     -8.48137107	     -5.43611509
      3.87500000	     -5.33554263	      5.74905158	      4.37711842	     -0.57274988	     -0.01953517	     -0.15265583	     38.88579251	     -7.63435262	     -3.13989717	    -49.06722126	     -5.05765467	      6.76792139	     20.13615163	      0.34314793	     15.87784117	      4.01220579	    -10.62306446	     10.30368639	      0.20326721	     -9.51331177	      3.49846934	     -8.37561772	     -5.73559705
      3.88000000	     -5.44155632	      5.62697420	      4.49271311	     -0.56732388	     -0.01990349	     -0.15271280	     39.18990847	     -7.53848801	     -3.29402488	    -47.22824796	     -4.74554024	      7.09435600	     19.97813513	     -0.01597744	     15.72992600	      4.10035623	    -10.57083691	     10.53942534	      0.26159739	     -9.53598099	      3.46321854	     -8.27807581	     -5.91646547
      3.88500000	     -5.38778604	      5.52386676	      4.66835185	     -0.56194086	     -0.02011999	     -0.15281305	     39.25419300	     -7.50897617	     -3.55411068	    -45.34346162	     -4.30445523	      7.50638699	     19.76569397	     -0.54799060	     15.57586543	      4.13342276	    -10.53399755	     10.83145215	      0.51581749	     -9.59214822	      3.22979899	     -8.21236539	     -6.27777264
      3.89000000	     -5.38339849	      5.42625452	      4.78840616	     -0.55654882	     -0.02041453	     -0.15282599	     39.35378457	     -7.43067666	     -3.72142797	    -43.42439774	     -3.92157428	      7.94220370	     19.55454063	     -1.00594138	     15.41827337	      4.05093756	    -10.51632720	     11.15076345	      0.86565632	     -9.63159848	      3.06020502	     -8.14630645	     -6.54971728
